/* XPM */
static char * 1santa03_xpm[] = {
"64 64 13 1",
" 	c #FFFFFF",
".	c #9BADB7",
"+	c #2F2F2E",
"@	c #741A33",
"#	c #9E293B",
"$	c #CBDBFC",
"%	c #F1F0FD",
"&	c #D4D3DE",
"*	c #2D6AC5",
"=	c #E59363",
"-	c #FFD19C",
";	c #DAA935",
">	c #C0942D",
"                                                                ",
"                                                                ",
"                  ..                                            ",
"                  ..                                            ",
"                ..  ..                                          ",
"                ..  ..                                          ",
"                  ..          ++++++++++++                      ",
"                  ..          ++++++++++++                      ",
"                            ++@@##########++++                  ",
"                            ++@@##########++++                  ",
"                          ++@@################++                ",
"                          ++@@################++                ",
"                          ++####################++              ",
"                          ++####################++              ",
"                        ++@@########@@@@####@@@@@@++            ",
"                        ++@@########@@@@####@@@@@@++            ",
"                    $$  ++##############@@@@@@@@@@@@++          ",
"                    $$  ++##############@@@@@@@@@@@@++          ",
"                    $$++%%%%%%%%%%%%%%%%@@@@@@@@@@@@%%++        ",
"                    $$++%%%%%%%%%%%%%%%%@@@@@@@@@@@@%%++        ",
"                    ..++&&&&&&&&&&&&&&&&%%%%++++++%%%%%%++      ",
"                    ..++&&&&&&&&&&&&&&&&%%%%++++++%%%%%%++      ",
"        ++++++        ..++**%%==**%%%%==&&&&@@@@@@++%%%%++      ",
"        ++++++        ..++**%%==**%%%%==&&&&@@@@@@++%%%%++      ",
"      ++%%%%%%++        ++------========&&&&++++@@@@++++        ",
"      ++%%%%%%++        ++------========&&&&++++@@@@++++        ",
"      ++%%%%%%&&++++++++--%%%%%%&&======&&++%%%%++@@@@++        ",
"      ++%%%%%%&&++++++++--%%%%%%&&======&&++%%%%++@@@@++        ",
"      ++%%%%&&&&++@@@@++%%%%&&%%%%&&==&&++%%%%%%%%++@@++        ",
"      ++%%%%&&&&++@@@@++%%%%&&%%%%&&==&&++%%%%%%%%++@@++        ",
"      ++&&&&&&@@++##@@++&&&&%%&&&&%%&&&&++%%%%%%&&++@@++      $$",
"      ++&&&&&&@@++##@@++&&&&%%&&&&%%&&&&++%%%%%%&&++@@++      $$",
"$$      ++@@######@@@@++++%%%%%%%%&&&&&&++%%&&&&@@@@@@@@++  $$  ",
"$$      ++@@######@@@@++++%%%%%%%%&&&&&&++%%&&&&@@@@@@@@++  $$  ",
"          ++######@@++@@@@++%%%%&&&&++++##++@@####@@@@@@++    $$",
"          ++######@@++@@@@++%%%%&&&&++++##++@@####@@@@@@++    $$",
"            ++####@@++####@@++++++++@@######++######@@@@++      ",
"            ++####@@++####@@++++++++@@######++######@@@@++      ",
"              ++++++++########%%&&@@##########++######@@++      ",
"              ++++++++########%%&&@@##########++######@@++      ",
"                      ++++@@@@%%&&@@@@@@@@@@@@@@++++++++        ",
"                      ++++@@@@%%&&@@@@@@@@@@@@@@++++++++        ",
"                      ++++++;;;;;;>>++++++++++++++++++++        ",
"                      ++++++;;;;;;>>++++++++++++++++++++        ",
"                    ++@@++++;;;;;;>>++++++++++++++@@@@@@++      ",
"                    ++@@++++;;;;;;>>++++++++++++++@@@@@@++      ",
"                    ++%%##@@@@%%&&@@@@@@@@@@@@@@@@##%%&&++      ",
"                    ++%%##@@@@%%&&@@@@@@@@@@@@@@@@##%%&&++      ",
"            $$      ++%%&&####%%&&####@@@@@@@@@@##%%&&++        ",
"            $$      ++%%&&####%%&&####@@@@@@@@@@##%%&&++        ",
"            $$  $$    ++&&%%%%%%%%%%%%%%%%%%%%%%%%&&@@++        ",
"            $$  $$    ++&&%%%%%%%%%%%%%%%%%%%%%%%%&&@@++        ",
"            $$  $$    ++@@&&&&&&&&&&&&&&&&&&&&&&&&@@@@++        ",
"            $$  $$    ++@@&&&&&&&&&&&&&&&&&&&&&&&&@@@@++        ",
"                $$    ++@@@@@@@@@@++++++++++@@@@@@@@@@++        ",
"                $$    ++@@@@@@@@@@++++++++++@@@@@@@@@@++        ",
"                      ++%%@@@@@@@@++      ++@@@@@@@@&&++        ",
"                      ++%%@@@@@@@@++      ++@@@@@@@@&&++        ",
"                        ++%%%%&&&&++$$    ++%%%%&&&&++          ",
"                        ++%%%%&&&&++$$    ++%%%%&&&&++          ",
"                        ++++++++++++  $$  ++++++++++++          ",
"                        ++++++++++++  $$  ++++++++++++          ",
"                                    $$                          ",
"                                    $$                          "};
