/* XPM */
static char * collecte_xpm[] = {
"64 64 35 1",
" 	c #FFFFFF",
".	c #9BADB7",
"+	c #735913",
"@	c #836516",
"#	c #937218",
"$	c #A77F0C",
"%	c #C3971E",
"&	c #B58C1C",
"*	c #624C12",
"=	c #735813",
"-	c #EC5D0C",
";	c #EF7D0C",
">	c #B44D28",
",	c #CBDBFC",
"'	c #D3AE48",
")	c #589B05",
"!	c #327300",
"~	c #F19B0C",
"{	c #A5801B",
"]	c #E2C20B",
"^	c #D1561A",
"/	c #933C1F",
"(	c #285E00",
"_	c #F2F2F2",
":	c #DFDFDF",
"<	c #F6F6F6",
"[	c #DFDDDA",
"}	c #DADADA",
"|	c #E9E9E9",
"1	c #EEEEEE",
"2	c #BDBCBA",
"3	c #C2C1BF",
"4	c #C5C0BB",
"5	c #B7B3AE",
"6	c #CFCDCB",
"                                                                ",
"                                                                ",
"                                            ..                  ",
"                                            ..                  ",
"                                          ..  ..                ",
"                                          ..  ..                ",
"                                            ..                  ",
"                                            ..                  ",
"                                                                ",
"                ++++++++                                        ",
"             ++@#$%%%%&#+**                                     ",
"           ++#%&#@@@@@#$%%#**                                   ",
"          +#%&@@+*=-;->+@@$&#*    ,,                            ",
"         +#'@+=**@-)!~;>={+@&#*   ,,                            ",
"        +#%@=-;->*-~]~;->-;->$#*  ,,,,                          ",
"        +&@=-~]);-;->;;^-~)!;>$*  ,,,,   ++++++++               ",
"       +$#+/^~~!-~)!;>-^>~]~;^$#* ,,,,++@#$%%%%&#+**            ",
"       +%@*>^;~;^~]~;-^;->~;-^@$* ,,++#%&#@@@@@#$%%#**          ",
"       +'@>^->-^>;~;;^~])!>^^>@%*  +#%&@@+*=-;->+@@$&#*         ",
"       +'@^)!;>//-;-^^~~~;->//@%* +#'@+=**@-)!~;>={+@&#*        ",
"       +%#^]~-^>>>-;->;~;;-(>/&$*+#%@=-;->*-~]~;->-;->$#*       ",
"       *#'@^-^^;-^~)!;^--^>^>@%#*+&@=-~]);-;->;;^-~)!;>$*       ",
"       *@$'@>/;~~^~]~-//>>^^@&#@+$#+/^~~!-~)!;>-^>~]~;^$#*      ",
"        *#$%@*(!;^;~;^>^->+@'#@*+%@*>^;~;^~]~;-^;->~;-^@$*      ",
"        **#$%&@+-^>-^>^-+@$'#@**+'@>^->-^>;~;;^~])!>^^>@%*      ",
"        *@+@#$%%#@@@@@@#$%%#@*=*+'@^)!;>//-;-^^~~~;->//@%*      ",
"        +*#++@#$&%''%%&$$#@+*=**+%#^]~-^>>>-;->;~;;-(>/&$*      ",
"        +@*$&@+@@###++++++++=*=**#'@^-^^;-^~)!;^--^>^>@%#*      ",
"        +*#=@%%@+++@#$%%%%&#+****@$'@>/;~~^~]~-//>>^^@&#@*      ",
"        +@*$&@@++#%&#@@@@@#$%%#***#$%@*(!;^;~;^>^->+@'#@*_      ",
",,      +*#=@%+#%&@@+*=-;->+@@$&#**#$%&@+-^>-^>^-+@$'#@**:<     ",
",,      [+*$&+#'@+=**@-)!~;>={+@&#*+@#$%%#@@@@@@#$%%#@*=*}|     ",
"  ,,     *@=+#%@=-;->*-~]~;->-;->$#*++@#$&%''%%&$$#@+*=**}:<  ,,",
"  ,,      *@+&@=-~]);-;->;;^-~)!;>$*$&@+@@######@@++@=*=*}}1  ,,",
",,         +$#+/^~~!-~)!;>-^>~]~;^$#*@%%@++******+@@**=**}}1    ",
",,         +%@*>^;~;^~]~;-^;->~;-^@$*&@@&&==##**#@**@=*=*}}1    ",
"           +'@>^->-^>;~;;^~])!>^^>@%*@%%@=${==##**@@**=**}:<    ",
"           +'@^)!;>//-;-^^~~~;->//@%*&@@&&==##**#@**@=**2}|     ",
"           +%#^]~-^>>>-;->;~;;-(>/&$*=&&@=$$==##**@@**=*}:<     ",
"           *#'@^-^^;-^~)!;^--^>^>@%#*#==$$==##**#@**@=*}:_      ",
"           *@$'@>/;~~^~]~-//>>^^@&#@*=@@==$$==##**==**}:_       ",
"            *#$%@*(!;^;~;^>^->+@'#@*_**=@@==##**@=***:|<        ",
"            **#$%&@+-^>-^>^-+@$'#@**:<[***@@**==***3|<          ",
"            *@+@#$%%#@@@@@@#$%%#@*=*}|  [4******561<            ",
"            +*#++@#$&%''%%&$$#@+*=**}:<                         ",
"            +@*$&@+@@######@@++@=*=*}}1                         ",
"            +*#=@%%@++******+@@**=**}}1                         ",
"            +@*$&@@&&==##**#@**@=*=*}}1                         ",
"            +*#=@%%@=${==##**@@**=**}:<           ,,            ",
"            [+*$&@@&&==##**#@**@=**2}|            ,,            ",
"             *@==&&@=$$==##**@@**=*}:<        ,,  ,,            ",
"              *@#==$$==##**#@**@=*}:_         ,,  ,,            ",
"               *=@@==$$==##**==**}:_          ,,  ,,            ",
"                **=@@==##**@=***:|<           ,,  ,,            ",
"                 [***@@**==***3|<             ,,                ",
"                   [4******561<               ,,                ",
"                                                                ",
"                                                                ",
"                          ,,                                    ",
"                          ,,                                    ",
"                        ,,  ,,                                  ",
"                        ,,  ,,                                  ",
"                          ,,                                    ",
"                          ,,                                    "};
