/* XPM */
static char * doors00_xpm[] = {
"64 64 17 1",
" 	c #362A20",
".	c #876B51",
"+	c #745B46",
"@	c #524031",
"#	c #98805A",
"$	c #AA9664",
"%	c #BFA772",
"&	c #D4B980",
"*	c #634E3B",
"=	c #48382B",
"-	c #2C2A2A",
";	c #373435",
">	c #6D6970",
",	c #433F40",
"'	c #534F54",
")	c #8D8A8F",
"!	c #605C62",
"                                                                ",
"                                                                ",
"                                                                ",
" .+++++@.++++++@.++++++@.++++++ @.++++++@.++++++@.++++++@.+++++ ",
" #.....@#......@#......@#...... @#......@#......@#......@#..... ",
" $#####@$######@$######@$###### @$######@$######@$######@$##### ",
" %$$$$$+%$$$$$$+%$$$$$$+%$$$$$$@+%$$$$$$+%$$$$$$+%$$$$$$+%$$$$$ ",
" &$$$$$+&$$$$$$+&$$$$$$+&$$$$$$@+&$$$$$$+&$$$$$$+&$$$$$$+&$$$$$ ",
" &&&&%%+&&&&&%%+&&&&&%%+&&&&&%%@+&&&&&%%+&&&&&%%+&&&&&%%+&&&&%% ",
" ...++*@..+.++*@..+.++*@..+.++* @..+.++*@..+.++*@..+.++*@...++* ",
" .++++*@.+++++*=.+++++*=.+++++* @.+++++*=.+++++*=.+++++*=.++++* ",
" .++++*=.+++++*@.+++++*@.+++++* @.+++++*@.+++++*@.+++++*@.++++* ",
" +++++*@.+++++*=.+++++*@.+++++* @.+++++*=.+++++*@.+++++*=+++++* ",
" .++++*@++++++*@++++++*=++++++* @++++++*@++++++*=++++++*@.++++* ",
" .++++*=++++++*=++++++*@++++++* @++++++*=++++++*@++++++*=.++++* ",
"-;++++*@.+++++*@.+++++*=.+++++* @.+++++*@.+++++*@.+++++*@++++*;-",
"->;*++*=.+++++*=.+++++*@.+++++* @.+++++*=.+++++*=.+++++*@.++*;,-",
"-'';*+*=++++++*=++++++*=++++++* @++++++*=++++++*=++++++*=++*;''-",
"-)>';**=.+++++*=.+++++*=.+++++* @.+++++*=.+++++*=.+++++*=+*;>)>-",
"->',-,''''''!'!'!'!!'!!!!!!!!!';''!!!!!!!!!'!!'!'!'!'''''',-'>'-",
"-,,,-;,,,,,,,,,,,,,,,,,,,,,,,,;-;,,,,,,,,,,,,,,,,,,,,,,,,,;-',,-",
"-',,-;,,,,)>,,,,,,)>,,,,,,)>,,;-;,,,)>,,,,,,)>,,,,,,)>,,,,;-'',-",
"-',,-;,,,,>';,,,,,>';,,,,,>';,;-;,,,>';,,,,,>';,,,,,>';,,,;-'',-",
"-',,-;;;;;;;;;;;;;;;;;;;;;;;;;;-;;;;;;;;;;;;;;;;;;;;;;;;;;;-'',-",
"-)>,--------------------------------------------------------')>-",
"->';-**=*******=*******=******* @*******=*******=*******=**-;>'-",
"-,;-*+*=++++++*=++++++*=++++++* @.+++++*=++++++*=++++++*=++*-;,-",
"-;-*++*=.+++++*=.+++++*@.+++++* @.+++++*@.+++++*=.+++++*=.++*-;-",
"--*+++*=.+++++*@.+++++*@.+++++* @.+++++*=.+++++*=.+++++*@.+++*--",
" *++++*@.+++++*=.+++++*=++++++* @.+++++*=++++++*@.+++++*@.++++* ",
" +++++*=.+++++*=.+++++*@.+++++* @++++++*@.+++++*=.+++++*=+++++* ",
" .++++*@++++++*@++++++*;;;;+++* @.+++;;;;++++++*@++++++*@.++++* ",
" .++++*=.+++++*=++++++;,;;,;++* @+++;,;;,;+++++*=++++++*=.++++* ",
" .++++*@++++++*@.+++++--''--++* @+++--''--+++++*@.+++++*@.++++* ",
" .++++*@.+++++*@.+++++-;>>;-++* @.++-;>>;-+++++*@++++++*=+++++* ",
" +++++*=++++++*=.++++->;'';,-+* @++->;'';,-++++*=++++++*=.++++* ",
" .++++*@.+++++*@++++->,-,,-',-* @.->,-,,-',-+++*@.+++++*@+++++* ",
" .++++*@.+++++*=.+++;>-;--;-';* @+;>-;--;-';+++*@++++++*@+++++* ",
" .++++*=++++++*=.+++;'------';* @+;'------';+++*@++++++*=.++++* ",
" +++++*@.+++++*@++++;'-=***->;* @+;'-***=->;+++*=++++++*=+++++* ",
" .++++*@.+++++*=++++;';=+++;>;* @.;';++*=;>;+++*=.+++++*@+++++* ",
" +++++*=.+++++*=.+++-,';;;;>'-* @.-,';;;;>'-+++*=++++++*@.++++* ",
"-;++++*=++++++*@++++*-,''>>'-** @.*-,''>>'-*+++*@.+++++*=++++*;-",
"->;*++*@.+++++*@.++++*------*+* @++*------*++++*@++++++*=+++*;,-",
"-'';*+*=++++++*=++++++*=****++* @.++****=*+++++*=++++++*=++*;''-",
"-)>';**=++++++*=++++++*=++++++* @++++++*=++++++*@++++++*@+*;>)>-",
"->',-,''''''!'!'!'!!'!!!!!!!!!';''!!!!!!!!!'!!'!'!'!'''''',-'>'-",
"-,,,-;,,,,,,,,,,,,,,,,,,,,,,,,;-;,,,,,,,,,,,,,,,,,,,,,,,,,;-',,-",
"-',,-;,,,,)>,,,,,,)>,,,,,,)>,,;-;,,,)>,,,,,,)>,,,,,,)>,,,,;-'',-",
"-',,-;,,,,>';,,,,,>';,,,,,>';,;-;,,,>';,,,,,>';,,,,,>';,,,;-'',-",
"-',,-;;;;;;;;;;;;;;;;;;;;;;;;;;-;;;;;;;;;;;;;;;;;;;;;;;;;;;-'',-",
"-)>,--------------------------------------------------------')>-",
"->';-**=*******=*******=******* @*******=*******=*******=**-;>'-",
"-,;-*+*=++++++*=++++++*=++++++* @++++++*=++++++*=++++++*=++*-;,-",
"-;-*++*@++++++*=++++++*@++++++* @++++++*=++++++*=++++++*@+++*-;-",
"--**++*@+++++**@+++++**=+++++** @+++++**@+++++**@+++++**@++*+*--",
" *++++*=++*+++*=++*+++*@++*+++* @++*+++*=++*+++*@++*+++*=+++++* ",
" ++*++*@+++++**@+++++**=+++++** @+++++**@+++++**=+++++**@++*++* ",
" ++*+**=++*+*+*=++*+*+*@++*+*+* @++*+*+*@++*+*+*=++*+*+*=++*+** ",
" ++**+*@++**+**=++**+**=++**+** @++**+**=++**+**=++**+**=++**+* ",
" ******=*******=*******=******* @*******=*******=*******=****** ",
"                                                                ",
"                                                                ",
"                                                                "};
