/* XPM */
static char * doors01_xpm[] = {
"64 64 52 1",
" 	c #362A20",
".	c #BFA772",
"+	c #AA9664",
"@	c #98805A",
"#	c #876B51",
"$	c #745B46",
"%	c #373435",
"&	c #2C2A2A",
"*	c #FFFFFF",
"=	c #534F54",
"-	c #D4B980",
";	c #AE9754",
">	c #8A712B",
",	c #615016",
"'	c #9BADB7",
")	c #CCB166",
"!	c #CFD5C3",
"~	c #524031",
"{	c #FEFEFE",
"]	c #634E3B",
"^	c #CBDBFC",
"/	c #48382B",
"(	c #403226",
"_	c #6D6970",
":	c #B3BEA0",
"<	c #657A10",
"[	c #C6CEB8",
"}	c #677C12",
"|	c #433F40",
"1	c #7B6525",
"2	c #92A6A0",
"3	c #6A7F13",
"4	c #BDC6AD",
"5	c #A8B592",
"6	c #E5E8DF",
"7	c #85A31C",
"8	c #697E13",
"9	c #697F12",
"0	c #6E8314",
"a	c #667A12",
"b	c #5B4B14",
"c	c #F9F9F7",
"d	c #859756",
"e	c #6A8512",
"f	c #6D8115",
"g	c #DDE2D6",
"h	c #B29A57",
"i	c #998447",
"j	c #F8F9F7",
"k	c #61740F",
"l	c #94A26F",
"m	c #BEC6AD",
" .++@#$%&**********************************************&=.++@#$ ",
" .++@#$%&**********************************************&=.++@#$ ",
" -++@#$%&****************;;;>,**************''*********&=-++@#$ ",
" -++@#$%&***************;));;,**************''*********&=-++@#$ ",
" -++@#$%&****************>;>,!************''**''*******&=-++@#$ ",
" --.+@#%&*********************************''**''*******&=--.+@# ",
" $$$~~~%&**************************;;>,*****''*********&=$$$~~~ ",
" .++@#$%&*********>>>>{**********;);;;>,****''*********&=.++@#$ ",
" .++@#$%&********>;;;;>,**********;));;,***************&=.++@#$ ",
" -++@#$%&********;);;;;>***********>>,!****************&=-++@#$ ",
" -++@#$%&********,>)))>,*******************************&=-++@#$ ",
" --.+@#%&&********!>>,,!*****;>>,*********************&&=--.+@# ",
" ]]]~~~%&%*****************{;;;;;,^^******************%&=]]]~~~ ",
" ]///((%&_&***************{>;));>,^^*****************&_&=]///(( ",
" ]///((%&=&****************:>>>,,<^^^^***************&=&=]///(( ",
" ]///((%&&&****;;>,***************^^^^***************&&&=]///(( ",
" ]///((%&=&*^^;));,[**************^^^;>>,{^^*********&=&=]///(( ",
" ~///((%&=%&^^,>>,}***************^^;));>>^^********&%=&=~///(( ",
" ]///((%&|=&^^*************>>,******^>>>,1,^********&=|&=]///(( ",
" ~///((%&|_&^^************;;;>,*****^;));;,^********&_|&%~///(( ",
" ~///((|&%=&^^**^^********,);,******'2>;>,3'********&=%&|~///(( ",
" ~///((=&%|&^^**^^*>>>44****5*******''^^^^''********&|%&=~///(( ",
" ~///((_&&&*^^**^^;;;;>,6*************''''******;;>,7&&&_~///(( ",
"&&&&&&&=&***^^**^^);;;;>,6*****>>>>5**''''****;);;;>,**&=&&&&&&&",
"&&%&&%&|&*******^^>)));,8*****>;;;>1,**********;));;,**&|&%&&%&&",
"&&&&&&&|&*******^^*>>,,9*****0>));;>1***********>>,a***&|&&&&&&&",
"&&&&&&&|&***********55********b;>>,,b******************&|&&&&&&&",
"&&%&&%&|&**********************c>>,,d*****;>>,*********&|&%&&%&&",
"&&&&&&&_&********************************;;;;;,********&_&&&&&&&",
" /(((((=&******************************4>;));>,********&=/((((( ",
" ~///((|&********************************>>>,,!********&|~///(( ",
" ~///((%&*******************;;>,**********ee***********&%~///(( ",
" ~///((&&******************;));,******************;>>,*&&~///(( ",
" ~///((%&******************,>>,f*****************;));>>&=~///(( ",
" ~///((%&************;;;>,**************>>,6*****6>>>,*&=~///(( ",
" ~///((%&***********;));;,*************;;;>,***********&=~///(( ",
" ~///((%&************>;>,d*************,);,************&=~///(( ",
" ~///((%&***********************>>>********************&=~///(( ",
" ~///((%&*****gg***************;;;;>,***************gg*&=~///(( ",
" ~///((%&*****>>>>6**********;h);;;;>,**************gg*&=~///(( ",
" ~///((%&****>;;;;>,**********i>)));,d******;;;>4******&=~///(( ",
" ~///((%&***5;);;;;>j**********1>>,,d******>));;>4*****&=~///(( ",
" ~///((%&****,>)))>,''**********************;>>,,******&=~///(( ",
" ~///((%&*****k>>,,9''***;>>,**************************&=~///(( ",
" ~///((%&*********''**'';;;;;,*************************&=~///(( ",
" ~///((%&*********''**'>;));>,*************************&=~///(( ",
" ~///((%&***********''**>>>,,c*************************&%~///(( ",
" ~///((|&**;;>,*****''*********************************&|~///(( ",
" ~///((=&*;));,******************;>>,*************^^***&=~///(( ",
" ~///((_&*,>>,l*****************;));>>************^^***&_~///(( ",
"&&&&&&&=&**************>>,*******>>>,*********^^**^^***&=&&&&&&&",
"&&%&&%&|&*************;;;>,*******************^^**^^***&|&%&&%&&",
"&&&&&&&|&*************,);,********************^^**^^***&|&&&&&&&",
"&&&&&&&|&******>>>****************************^^**^^***&|&&&&&&&",
"&&%&&%&|&*****;;;;>,**************************^^*******&|&%&&%&&",
"&&&&&&&_&*****);;;;>,*******************;;;>,*^^*******&_&&&&&&&",
" /(((((=&*****>)));,!******;;;>********;));;,**********&=/((((( ",
" ~///((|&******>>,,l******>));;>********>;>,m**********&|~///(( ",
" ~///((%&*****************^;>>,,***********************&%~///(( ",
" ~///((&******************^^**********************;;>,**&~///(( ",
" ~///(( ****************^^**^^***>>>>***********;);;;>,* ~///(( ",
" ~///(( ****************^^**^^**>;;;;>,*********{;));;,* ~///(( ",
" ~///(( ******************^^****;);;;;>***********>>,l** ~///(( ",
" ~///(( ******************^^****,>)))>,***************** ~///(( "};
