/* XPM */
static char * enemy02_xpm[] = {
"64 64 20 1",
" 	c #FFFFFF",
".	c #9BADB7",
"+	c #2F2F2E",
"@	c #983636",
"#	c #CBDBFC",
"$	c #7E3030",
"%	c #B0B0B0",
"&	c #804020",
"*	c #A06040",
"=	c #443122",
"-	c #6F4827",
";	c #50565D",
">	c #9299A4",
",	c #C0942D",
"'	c #DAA935",
")	c #D4D4D7",
"!	c #7E8590",
"~	c #285DAA",
"{	c #2D6AC5",
"]	c #255190",
"                                                                ",
"                                                                ",
"                                            ..                  ",
"                                            ..                  ",
"                                          ..  ..                ",
"                                          ..  ..                ",
"                                            ..                  ",
"                                            ..                  ",
"                                                                ",
"                                                                ",
"                                                                ",
"                       ++++                                     ",
"                    +++@@@@++++   ##                            ",
"                   +@@@$$$@@@@@++ ##                            ",
"                  +$$@$+$$@@@@@@@+##+#                          ",
"                 +$$$@+%+$$$@@@@@@++%+                          ",
"            ##  +$$$$$+% +$+++++$@+ %+    ##                    ",
"            ## +$$$$$$+% ++&&&&&+++ %+    ##                    ",
"            ##+$$$$$$$+% +&******&&+%+..####                    ",
"            ##+$$$$$+++%  +********&+#..####                    ",
"            #++$$$$+&&&%   &***&****+.####..                    ",
"            +&+$$$$+&&&&% &*&&**&*&*&+####..                    ",
"           +&&+$$$$$++&&&&&+%%&*&&*&%+....                      ",
"          +&**&+$$$$$$+&&&&+%  +&&+% +....                      ",
"          +****+$$$$$$+&&&&&+++&&&&++&+                         ",
"          +****&+$$$$$$+&&&&&&&*******&+             +++        ",
"          +****&+$$$$$$$+&&&&&&&******&+        +++++=-+        ",
"          +****&+$$$$$$$$+&&&&&&&+++++&+     +++;;;;-++         ",
"          +****&&+$$$$$$$$+&&&&&++++++++ ++++;;;>>>>>>+         ",
"          +&**&&&+$$$$$$$$$++&&&+,+++'+++;;;;>>>))))))+         ",
"##        +&&&&&&+$$$$$$$$$$$++++,+++'+--->>>))))))))))+++      ",
"##        +&***&&++$$$$$$$$$@$$+++,''+-=++))))))))))))))))+     ",
"  ##      +*****&+&+$$$$$$$$+++---++++++  ++)))))))))))))+    ##",
"  ##      +*****+&&&+++$$+++---=+++&***+   +)))))))))))) +    ##",
"##        +*****++&&&&+++---=++++&+&&&&+  +)))))))))))  +       ",
"##        +*****&&++++----=++**&++&&&&&+  +   ))))))  ++        ",
"           +****&+-----=+++&&&*&+ +++++   ++++      ++          ",
"           +***&&+-=++++*&&&&&*&+             ++++++            ",
"          ++****&+++&&****&&&**&+                               ",
"        ++=+&***&&+&&&***&&&&&*+                                ",
"       +--+++&&&&&+&&&&***&&&*&+                                ",
"        ++   ++++++++&&**++++&&+                                ",
"                 +>>>++++>!!!++                                 ",
"                +*+++>>!!>!!!!>+                                ",
"               +**&+~++++>!!!+++                                ",
"              +***&&+~~~~++++{+++                               ",
"              +***&&+~~~~{{{{~+**+                              ",
"             +***&&++~~~~~{{{~+**+                              ",
"             +**&&+]]+~~~~{{~+&***+               ##            ",
"             +**&&+]]+~~~~~~~+&**&+               ##            ",
"             +&&&&++++~~~~~~~+&&&&+           ##  ##            ",
"             +++++    ++++++++&+++            ##  ##            ",
"             +++++            ++++            ##  ##            ",
"                                              ##  ##            ",
"                                              ##                ",
"                                              ##                ",
"                                                                ",
"                                                                ",
"                          ##                                    ",
"                          ##                                    ",
"                        ##  ##                                  ",
"                        ##  ##                                  ",
"                          ##                                    ",
"                          ##                                    "};
