/* XPM */
static char * santa01_xpm[] = {
"64 64 13 1",
" 	c #FFFFFF",
".	c #9BADB7",
"+	c #2F2F2E",
"@	c #9E293B",
"#	c #741A33",
"$	c #F1F0FD",
"%	c #CBDBFC",
"&	c #D4D3DE",
"*	c #E59363",
"=	c #2D6AC5",
"-	c #FFD19C",
";	c #C0942D",
">	c #DAA935",
"                                                                ",
"                                                                ",
"                                            ..                  ",
"                                            ..                  ",
"                      ++++++++++++        ..  ..                ",
"                      ++++++++++++        ..  ..                ",
"                    ++@@@@@@@@@@##++        ..                  ",
"                    ++@@@@@@@@@@##++        ..                  ",
"                  ++@@@@@@@@@@@@@@##++                          ",
"                  ++@@@@@@@@@@@@@@##++                          ",
"                ++@@@@@@@@@@@@@@@@@@++                          ",
"                ++@@@@@@@@@@@@@@@@@@++                          ",
"              ++####@@@@####@@@@@@@@##++                        ",
"              ++####@@@@####@@@@@@@@##++                        ",
"            ++##########@@@@@@@@@@@@@@++                        ",
"            ++##########@@@@@@@@@@@@@@++                        ",
"          ++############$$$$$$$$$$$$$$$$++%%                    ",
"          ++############$$$$$$$$$$$$$$$$++%%                    ",
"          ++########$$$$&&&&&&&&&&&&&&&&++%%                    ",
"          ++########$$$$&&&&&&&&&&&&&&&&++%%                    ",
"        ++$$&&++++++&&&&**$$$$==**$$==++%%..                    ",
"        ++$$&&++++++&&&&**$$$$==**$$==++%%..                    ",
"        ++&&++####++&&&&********------++..                      ",
"        ++&&++####++&&&&********------++..                      ",
"          ++######++&&&&******&&$$$$$$--++        ++++++        ",
"          ++######++&&&&******&&$$$$$$--++        ++++++        ",
"        ++######++++&&&&&&**&&$$$$&&$$$$++++++  ++$$$$$$++      ",
"        ++######++++&&&&&&**&&$$$$&&$$$$++++++  ++$$$$$$++      ",
"        ++####++$$$$++&&&&&&$$&&&&$$&&&&++####++&&$$$$$$++      ",
"        ++####++$$$$++&&&&&&$$&&&&$$&&&&++####++&&$$$$$$++      ",
"%%      ++##++$$$$$$$$++&&&&&&$$$$$$$$++++##@@++&&&&$$$$++      ",
"%%      ++##++$$$$$$$$++&&&&&&$$$$$$$$++++##@@++&&&&$$$$++      ",
"  %%  ++####++&&$$$$$$++++++&&&&$$$$++####++##++##&&&&&&++    %%",
"  %%  ++####++&&$$$$$$++++++&&&&$$$$++####++##++##&&&&&&++    %%",
"%%    ++########&&&&$$++@@##++++++++##@@@@++##@@@@@@##++        ",
"%%    ++########&&&&$$++@@##++++++++##@@@@++##@@@@@@##++        ",
"      ++####@@@@@@##++@@@@@@##&&$$@@@@@@@@++##@@@@@@++          ",
"      ++####@@@@@@##++@@@@@@##&&$$@@@@@@@@++##@@@@@@++          ",
"      ++##@@@@@@@@++##########&&$$####++++++++++++++            ",
"      ++##@@@@@@@@++##########&&$$####++++++++++++++            ",
"        ++++++++++++++++++++;;>>>>>>++++++                      ",
"        ++++++++++++++++++++;;>>>>>>++++++                      ",
"      ++######++++++++++++++;;>>>>>>++++##++                    ",
"      ++######++++++++++++++;;>>>>>>++++##++                    ",
"      ++&&$$@@################&&$$####@@$$++                    ",
"      ++&&$$@@################&&$$####@@$$++                    ",
"        ++&&$$@@##########@@@@&&$$@@@@&&$$++                    ",
"        ++&&$$@@##########@@@@&&$$@@@@&&$$++                    ",
"        ++##&&$$$$$$$$$$$$$$$$$$$$$$$$&&++        %%            ",
"        ++##&&$$$$$$$$$$$$$$$$$$$$$$$$&&++        %%            ",
"        ++####&&&&&&&&&&&&&&&&&&&&&&&&##++    %%  %%            ",
"        ++####&&&&&&&&&&&&&&&&&&&&&&&&##++    %%  %%            ",
"        ++############++++++############++    %%  %%            ",
"        ++############++++++############++    %%  %%            ",
"        ++##########++      ++##########++    %%                ",
"        ++##########++      ++##########++    %%                ",
"        ++&&########++      ++########$$++                      ",
"        ++&&########++      ++########$$++                      ",
"          ++&&&&$$$$++    %%++&&&&$$$$++                        ",
"          ++&&&&$$$$++    %%++&&&&$$$$++                        ",
"          ++++++++++++  %%  ++++++++++++                        ",
"          ++++++++++++  %%  ++++++++++++                        ",
"                          %%                                    ",
"                          %%                                    "};
