/* XPM */
static char * sol_xpm[] = {
"64 64 3 1",
" 	c #FFFFFF",
".	c #9BADB7",
"+	c #CBDBFC",
"                                                                ",
"                                                                ",
"                                            ..                  ",
"                                            ..                  ",
"                                          ..  ..                ",
"                                          ..  ..                ",
"                                            ..                  ",
"                                            ..                  ",
"                                                                ",
"                                                                ",
"                                                                ",
"                                                                ",
"                                  ++                            ",
"                                  ++                            ",
"                                  ++++                          ",
"                                  ++++                          ",
"            ++                    ++++    ++                    ",
"            ++                    ++++    ++                    ",
"            ++                      ++..++++                    ",
"            ++                      ++..++++                    ",
"            ++  ++                  ..++++..                    ",
"            ++  ++                  ..++++..                    ",
"            ++  ++                    ....                      ",
"            ++  ++                    ....                      ",
"                ++                                              ",
"                ++                                              ",
"                                                                ",
"                                                                ",
"                                                                ",
"                                                                ",
"++                                                              ",
"++                                                              ",
"  ++                                                          ++",
"  ++                                                          ++",
"++                                                              ",
"++                                                              ",
"                                                                ",
"                                                                ",
"                                                                ",
"                                                                ",
"                                                                ",
"                                                                ",
"                    ..                                          ",
"                    ..                                          ",
"                  ..  ..                                        ",
"                  ..  ..                                        ",
"                    ..                                          ",
"                    ..                                          ",
"                                                  ++            ",
"                                                  ++            ",
"                                              ++  ++            ",
"                                              ++  ++            ",
"                                              ++  ++            ",
"                                              ++  ++            ",
"                                              ++                ",
"                                              ++                ",
"                                                                ",
"                                                                ",
"                          ++                                    ",
"                          ++                                    ",
"                        ++  ++                                  ",
"                        ++  ++                                  ",
"                          ++                                    ",
"                          ++                                    "};
