/* XPM */
static char * tree_xpm[] = {
"64 64 9 1",
" 	c #FFFFFF",
".	c #CBDBFC",
"+	c #9BADB7",
"@	c #3E734E",
"#	c #4D9262",
"$	c #7AB055",
"%	c #45283C",
"&	c #663931",
"*	c #DADADA",
"                                                                ",
"                   .                                            ",
"                  ..                        ++                  ",
"                ...                         ++                  ",
"           @#.                            +   ++                ",
"          @#$.                                .+                ",
"          @   .$#                            ..                 ",
"         @  ..$#$ .     .                  ...                  ",
"        @##.#$$ ..#.    .@            @#.                       ",
"         ###$#$#$###  ..@@           @#$.                       ",
"          $#    ##   .@@@@           @   .$#                    ",
"       @ ..$@...  ...@@@@@@         @  ..$#$ .     .            ",
"       ...$$$@@@@@@@###@@@@       .@##.#$$ ..#.    .@           ",
"       @#$$$############@ @       . ###$#$#$###  ..@@           ",
"      @#  #$#$##         .@@      .  $#    ##   .@@@@           ",
"     @#     ##       .@..#@@@     @ ..$@...  ...@@@@@@          ",
"     @#...  . ###.  .@#@#@@@      ...$$$@@@@@@@###@@@@          ",
"     @####..######..@#@#@#@@      @#$$$############@ @          ",
"       ##@#@#############@@@     @#  #$#$##         .@@         ",
"       ###@#@#@#########@#@@@   @#     ##       .@..#@@@        ",
"       $###@#@#@#@#######@@ @@  @#...  . ###.  .@#@#@@@         ",
"    .  #$###@@@@@#@###  #    @  @####..######..@#@#@#@@         ",
"    .   #$###@@@@@###     ...@    ##@#@#############@@@         ",
"    @.   #$###     ##    .##@@@   ###@#@#@#########@#@@@        ",
"    @@    #$  ....     ..@#@@@@   $###@#@#@#@#######@@ @@       ",
"   @@...     ##@@@.....@@#@#@@@@  #$###@@@@@#@###  #    @       ",
"  @  .@@.....####@@@@@@@#@#@#@@@   #$###@@@@@###     ...@       ",
"  @   @@@@@@#######@@@##@#@ @@@@.   #$###     ##    .##@@@      ",
"  @.   $#################   .@@@@    #$  ....     ..@#@@@@      ",
"  @@.   $##############    .@@@@...     ##@@@.....@@#@#@@@@     ",
"..@@#..   ##     .####.....@@#@ .@@.....####@@@@@@@#@#@#@@@     ",
"..@@@##..##.    .#######@#@@@@ . @@@@@@#######@@@##@#@ @@@@     ",
" @@@@@######....######@@@@@@@ .@  $#################   .@@@   ..",
" @@@@@@@@@################   .@@@  $##############    .@@@@   ..",
".@ @######  #############  ###@@@.   ##     .####.....@@#@      ",
".@   #@ ..      @@@@#$$   .#@@@@@#..##.    .#######@#@@@@ .     ",
" @    #@@@... @@@@@#   ..#@@@@@@@######....######@@@@@@@ .@     ",
" @.   #@@@@@@@@#..........@@##@@@@@@@################   .@@@    ",
" @.  ..#@@@@@@@@@@@@@@@@@@#####@@####  #############  ###@@@    ",
" @#.    #@@@@@@@@@@####     .##@@@ ..      @@@@#$$   .#@@@@@    ",
" @##..    ####  #####    ..$###@@#@@@... @@@@@#   ..#@@@@@@@    ",
"  @##$..#### ...  # .....####@@@@#@@@@@@@@#..........@@##@@@    ",
"   @@@##..#################@@@@@..#@@@@@@@@@@@@@@@@@@#####@@    ",
"    @@@@#######@@########@@@@@@    #@@@@@@@@@@####     .##@@    ",
"     @@@@@####@@@@@@@@@@@@@@@@#..    ####  #####    ..$###@@    ",
"       @@@@@@@@@@@@@@@@@@@@@@@##$..#### ...  # .....####@@@@    ",
"         @@@@@@%%%%%%@@       @@@##..#################@@@@@     ",
"          @@@%%%%%%%%+         @@@@#######@@########@@@@@@      ",
"            &&&&%&%&%           @@@@@####@@@@@@@@@@@@@@@@       ",
"            &&&&%&%&%**           @@@@@@@@@@@@@@@@@@@@@@        ",
"        ****&&&&&&%&%%*****         @@@@@@%%%%%%@@..            ",
"      *****&%&&&&&%&%%*******        @@@%%%%%%%%  ..            ",
"     *****&%%&&&&&%&%%&*******         &&&&%&%&%  ..            ",
"    *********&&%&&%%%%%&*******        &&&&%&%&%**..            ",
"    ********&&&%&%%%%&*********    ****&&&&&&%&%%*****          ",
"     *******&%%%%%%%%%&*******   *****&%&&&&&%&%%*******        ",
"      ******&********%%******   *****&%%&&&&&%&%%&*******       ",
"        *******************    *********&&%&&%%%%%&*******      ",
"            ***********   ..   ********&&&%&%%%%&*********      ",
"                          ..    *******&%%%%%%%%%&*******       ",
"                        ..  ..   ******&********%%******        ",
"                        ..  ..     *******************          ",
"                          ..           ***********              ",
"                          ..                                    "};
